PathFileType	4	(X/Y/Z)	E:\Qualisys_Data\Carbon_Farble_Plate\Data\Amateur_Runner\S1\T1\S1T1V22_c3d.trc
DataRate	CameraRate	NumFrames	NumMarkers	Units	OrigDataRate	OrigDataStartFrame	OrigNumFrames
200.000000	200.000000	5	39	mm	200.000000	243	278
Frame#	Time	LSHO			RSHO			LICST			RICST			LASIS			LHEEL			RASIS			LTROC			RTROC			SACR			LTH1			LSK4			LTH2			LTH3			RHM5			LSK2			LTH4			RTH1			LTOE			RTH2			RTH3			RTH4			LLEP			RLEP			LSK1			LSK3			RSK1			LHM5			RSK2			LFT1			RSK3			RSK4			LLME			RLME			RTOE			RHEEL			RFT1			RFT2			LFT2			
		X1	Y1	Z1	X2	Y2	Z2	X3	Y3	Z3	X4	Y4	Z4	X5	Y5	Z5	X6	Y6	Z6	X7	Y7	Z7	X8	Y8	Z8	X9	Y9	Z9	X10	Y10	Z10	X11	Y11	Z11	X12	Y12	Z12	X13	Y13	Z13	X14	Y14	Z14	X15	Y15	Z15	X16	Y16	Z16	X17	Y17	Z17	X18	Y18	Z18	X19	Y19	Z19	X20	Y20	Z20	X21	Y21	Z21	X22	Y22	Z22	X23	Y23	Z23	X24	Y24	Z24	X25	Y25	Z25	X26	Y26	Z26	X27	Y27	Z27	X28	Y28	Z28	X29	Y29	Z29	X30	Y30	Z30	X31	Y31	Z31	X32	Y32	Z32	X33	Y33	Z33	X34	Y34	Z34	X35	Y35	Z35	X36	Y36	Z36	X37	Y37	Z37	X38	Y38	Z38	X39	Y39	Z39	

244	1.215	2426.1689453125	1513.06103515625	-440.8624267578125	2360.7158203125	1509.93408203125	-119.1897888183594	2378.112548828125	1038.407592773438	-417.7352294921875	2362.088134765625	1067.4765625	-121.1512908935547	2420.71875	997.5267333984376	-390.3915100097656	1847.249267578125	257.79736328125	-315.0161437988281	2399.43359375	1020.103271484375	-128.8836059570312	2290.777587890625	931.389404296875	-434.8067321777344	2309.7109375	931.9065551757812	-91.24497222900392	2253.09521484375	1073.229248046875	-270.0637817382812	2359.8837890625	752.2077026367188	-403.2306518554688	1952.799560546875	355.9920959472656	-349.3872375488281	2284.39697265625	773.758056640625	-434.44580078125	2322.705810546875	656.3780517578125	-384.7632751464844	2581.810791015625	152.9946136474609	-106.9902954101562	2020.406494140625	424.1119079589844	-388.1767272949219	2245.195068359375	683.4595947265625	-410.7359924316406	2487.48583984375	888.714599609375	-116.4131164550781	1982.396240234375	42.9665412902832	-319.1136474609375	2430.5380859375	838.0958862304688	-89.21952819824219	2552.875	811.88818359375	-116.3721466064453	2492.7509765625	760.2346801757812	-101.4658813476562	2211.637939453125	532.212890625	-371.6526489257812	2601.835693359375	633.7854614257812	-130.9326324462891	2079.8056640625	364.3391723632812	-378.7375183105469	2003.46826171875	298.2095336914062	-374.1666259765625	2558.4951171875	446.267822265625	-116.0304870605469	1925.775512695312	82.59012603759766	-375.7128601074219	2481.619140625	469.5683898925781	-131.9803619384766	1836.45703125	237.3299865722656	-284.0888671875	2533.592529296875	349.9176025390625	-131.320556640625	2459.950439453125	373.7752380371094	-156.1701202392578	1899.90185546875	233.9506683349609	-365.2078552246094	2467.60595703125	231.3545989990234	-137.8643188476562	2657.803955078125	171.15185546875	-176.0171813964844	2400.998291015625	194.5080718994141	-187.3155364990234	2418.162353515625	168.9355773925781	-217.2381591796875	2404.023193359375	170.4246520996094	-160.3578796386719	1824.30322265625	236.8367156982422	-337.0625
245	1.22	2447.576904296875	1516.5341796875	-438.17626953125	2381.15478515625	1512.29833984375	-118.1956787109375	2400.90234375	1040.6943359375	-416.7760009765625	2384.81689453125	1070.31884765625	-120.4127960205078	2441.1396484375	999.073974609375	-389.41064453125	1867.225341796875	270.7951049804688	-317.6817932128906	2422.066650390625	1022.608642578125	-128.3912658691406	2313.0107421875	934.9793090820312	-434.6133117675781	2331.598876953125	934.5848388671876	-91.4234619140625	2275.750732421875	1076.4326171875	-270.1543884277344	2380.39501953125	754.9284057617188	-403.5508117675781	1968.237915039062	362.8704528808594	-350.6942443847656	2301.08642578125	777.0615234375	-434.3883666992188	2343.24267578125	659.0213623046875	-388.265869140625	2625.720947265625	151.9048919677734	-106.2747955322266	2037.0166015625	430.4105834960938	-389.2388000488281	2264.356201171875	687.5838623046875	-409.5382995605469	2509.6171875	890.733154296875	-115.8932418823242	1988.814575195312	42.64186477661133	-319.6250610351562	2452.142822265625	840.2516479492188	-89.67221069335938	2575.629150390625	813.317626953125	-117.0302505493164	2513.587646484375	762.3467407226562	-102.9517059326172	2229.2001953125	536.086669921875	-371.9268188476562	2621.630126953125	634.7526245117188	-130.8342437744141	2095.540771484375	370.0928955078125	-379.3659973144531	2018.259765625	304.3148803710938	-374.4588012695312	2587.032958984375	444.91357421875	-115.0459060668945	1935.076293945312	88.11400604248047	-373.6211547851562	2508.700439453125	463.7336730957031	-130.5493927001953	1853.787231445312	250.2912292480469	-285.1452026367188	2567.1826171875	347.0658264160156	-130.6279602050781	2492.4853515625	367.3310852050781	-154.8806304931641	1915.254638671875	242.2881774902344	-365.4585266113281	2507.254150390625	224.7923736572266	-136.6006622314453	2700.52734375	174.1932678222656	-175.5765686035156	2442.60205078125	184.3867492675781	-187.2229614257812	2463.2822265625	159.8780059814453	-216.5830688476562	2446.935546875	160.2729797363281	-159.875244140625	1842.063598632812	250.2481384277344	-338.0720825195312
246	1.225	2469.600341796875	1520.055419921875	-436.401611328125	2402.109619140625	1514.517944335938	-117.3209533691406	2423.537109375	1042.869384765625	-416.5484619140625	2407.272216796875	1072.788330078125	-120.0959548950195	2460.72314453125	1000.290222167969	-387.0810852050781	1885.73974609375	282.3400573730469	-319.2493896484375	2444.135498046875	1024.588012695312	-128.1068878173828	2334.980712890625	937.87646484375	-434.7619018554688	2353.735595703125	936.9743041992188	-90.95821380615234	2298.357666015625	1079.067626953125	-270.3916320800781	2400.3515625	757.4983520507812	-403.7369689941406	1984.200439453125	370.711669921875	-351.2569274902344	2325.074462890625	780.5633544921875	-434.3568420410156	2362.524658203125	662.3482055664062	-389.6084289550781	2668.440185546875	151.3237609863281	-105.5316390991211	2054.401611328125	436.5245666503906	-389.9534912109375	2283.785400390625	691.3190307617188	-409.6797790527344	2531.62109375	892.19384765625	-115.3049774169922	1996.465698242188	47.86051177978516	-318.2108764648438	2473.3291015625	841.805419921875	-90.68148040771484	2597.34326171875	814.160888671875	-116.9145050048828	2534.583251953125	763.38671875	-104.4259643554688	2247.800048828125	539.4210815429688	-372.6405334472656	2640.6474609375	634.707275390625	-130.6893463134766	2112.33837890625	374.8447570800781	-379.4343566894531	2033.786499023438	311.1448059082031	-374.8505554199219	2614.208740234375	442.5315246582031	-112.848762512207	1945.189331054688	95.545166015625	-373.7257995605469	2535.9833984375	458.2850646972656	-130.4661102294922	1872.021240234375	262.9358215332031	-286.6777038574219	2600.39697265625	344.1895751953125	-128.9951477050781	2524.130126953125	360.7441711425781	-154.1392364501953	1929.902465820312	250.6537933349609	-366.397705078125	2547.00537109375	217.8435974121094	-135.4465026855469	2742.479736328125	177.2148132324219	-175.3491821289062	2486.15087890625	176.0648345947266	-186.4140930175781	2505.72021484375	149.7960662841797	-214.9138641357422	2489.8720703125	150.5049438476562	-158.748046875	1860.125	262.6511535644531	-340.0398864746094
247	1.23	2491.154296875	1523.399291992188	-434.252685546875	2422.523193359375	1516.55419921875	-116.1443634033203	2446.4111328125	1045.1728515625	-416.1643676757812	2429.45849609375	1074.610107421875	-119.7928314208984	2485.385986328125	1002.722290039062	-388.0556030273438	1902.321655273438	292.7663269042969	-320.950927734375	2466.179443359375	1026.485473632812	-127.7129592895508	2356.805419921875	940.566162109375	-434.6812133789062	2374.974609375	938.4708251953124	-91.586181640625	2320.428466796875	1081.777954101562	-270.0103759765625	2421.22314453125	759.9283447265625	-403.7898559570312	2000.865356445312	378.2760009765625	-352.1993408203125	2345.528564453125	783.4790649414062	-434.1014404296875	2382.232666015625	664.6468505859375	-389.9435729980469	2711.368408203125	151.5921783447266	-104.2901763916016	2072.7734375	442.8062744140625	-390.5090026855469	2304.082275390625	694.6067504882812	-410.40625	2552.5791015625	893.1961669921875	-114.3466339111328	2005.819946289062	58.03464126586914	-316.59814453125	2494.549560546875	842.5509643554688	-91.61985778808594	2618.349365234375	814.5158081054688	-116.9805145263672	2553.644775390625	764.359375	-105.0742874145508	2267.1015625	542.4978637695312	-373.4102478027344	2660.22216796875	634.212158203125	-130.2417907714844	2129.338623046875	379.9528503417969	-379.5912780761719	2048.9736328125	317.93701171875	-375.4708862304688	2642.9423828125	440.2783203125	-113.1439208984375	1955.744140625	104.6269989013672	-373.6802368164062	2563.792236328125	451.6449890136719	-130.6656799316406	1888.864013671875	274.6036071777344	-288.0660095214844	2633.409912109375	341.2416687011719	-127.7604446411133	2557.78564453125	353.4160461425781	-155.2647247314453	1944.818969726562	259.5558471679688	-367.2960815429688	2586.720703125	211.8876647949219	-134.056640625	2783.377685546875	180.8157653808594	-174.6269836425781	2524.8671875	168.0328826904297	-183.143798828125	2547.74609375	141.794189453125	-213.4667816162109	2530.771240234375	142.751953125	-156.5892333984375	1876.4443359375	274.1585388183594	-341.8911743164062
248	1.235	2512.571044921875	1526.08740234375	-432.5138549804688	2443.314453125	1518.095458984375	-114.7162628173828	2468.494384765625	1047.174682617188	-415.5128173828125	2451.499267578125	1076.165161132812	-119.744026184082	2507.302734375	1004.581298828125	-387.6063842773438	1915.888061523438	302.7965393066406	-321.9501647949219	2488.39013671875	1027.777954101562	-127.3461456298828	2378.536865234375	942.9217529296876	-434.5469970703125	2396.601318359375	939.9602661132812	-91.36682891845705	2342.9951171875	1084.203491210938	-269.8712463378906	2441.106201171875	761.8756713867188	-402.1689453125	2018.136108398438	386.4907531738281	-352.9809265136719	2366.65234375	785.834228515625	-434.0791931152344	2403.313720703125	666.9750366210938	-390.0575561523438	2753.211669921875	152.1459350585938	-104.0374908447266	2091.62451171875	448.8295288085938	-390.7757263183594	2325.18994140625	696.5606689453125	-410.2135620117188	2575.18359375	892.990234375	-114.3918762207031	2016.220458984375	67.35299682617188	-314.4089660644531	2515.2705078125	843.6839599609375	-92.279052734375	2638.301025390625	813.8919067382812	-117.3976058959961	2575.25830078125	763.9364013671875	-106.5692749023438	2287.772216796875	545.0521850585938	-373.4840393066406	2679.55859375	633.0408935546875	-129.8963928222656	2146.781982421875	385.1136169433594	-379.3773193359375	2064.89404296875	323.2044067382812	-374.3731994628906	2669.3056640625	438.0370178222656	-111.6297988891602	1968.263916015625	113.0581359863281	-372.6520385742188	2590.323486328125	445.4865112304688	-130.2663116455078	1902.2021484375	284.8958129882812	-289.2543334960938	2665.009521484375	338.511474609375	-126.5782852172852	2588.953369140625	347.1221618652344	-154.0737609863281	1959.431762695312	268.7830505371094	-368.1636047363281	2625.30224609375	206.6106262207031	-133.2052459716797	2823.229248046875	184.8323669433594	-174.2787933349609	2567.941162109375	159.1929626464844	-181.4608612060547	2589.272216796875	134.1369934082031	-212.3165435791016	2575.389404296875	134.2179565429688	-156.1622619628906	1889.632568359375	284.1221923828125	-343.138671875
